# xmcd
#
# Track frame offsets: 
#        150
#        26994
#        51186
#        76789
#        101655
#        126130
#        150448
#        172083
#        192587
#        223361
#        243524
#        263183
#
# Disc length: 3783 seconds
#
# Revision: 0
# Processed by: cddbd v1.5.2PL0 Copyright (c) Steve Scherf et al.
# Submitted via: ExactAudioCopy v1.1
#
DISCID=ad0ec50c
DTITLE=Jan Luley, Torsten Zwingenberger - Air Force One
DYEAR=2015
DGENRE=Blues
TTITLE0=Keep On Gwine
TTITLE1=Pennies From Heaven
TTITLE2=Get Out My Life Woman
TTITLE3=Blues For A Red Cat
TTITLE4=On The Sunny Side Of The Street
TTITLE5=Air Force One
TTITLE6=Light The Way
TTITLE7=Sweet Lorraine
TTITLE8=Martin's Mumbo
TTITLE9=Frenchmen Street
TTITLE10=I'm Going Home
TTITLE11=We Shall Walk Through the Streets Of The City
EXTD=
EXTT0=
EXTT1=
EXTT2=
EXTT3=
EXTT4=
EXTT5=
EXTT6=
EXTT7=
EXTT8=
EXTT9=
EXTT10=
EXTT11=
PLAYORDER=
